HIERARCHY
ROOT Hips
{
 OFFSET 0.000000 0.000000 0.000000
 CHANNELS 6 Xposition Yposition Zposition Yrotation Xrotation Zrotation
 JOINT Chest
 {
  OFFSET 0.000000 10.388337 0.005184
  CHANNELS 3 Yrotation Xrotation Zrotation
  JOINT Chest2
  {
   OFFSET 0.000000 10.458247 -0.010579
   CHANNELS 3 Yrotation Xrotation Zrotation
   JOINT Chest3
   {
    OFFSET 0.000000 10.415828 0.000000
    CHANNELS 3 Yrotation Xrotation Zrotation
    JOINT Chest4
    {
     OFFSET 0.000000 10.405206 0.000000
     CHANNELS 3 Yrotation Xrotation Zrotation
     JOINT Neck
     {
      OFFSET 0.000000 15.720090 0.000000
      CHANNELS 3 Yrotation Xrotation Zrotation
      JOINT Head
      {
       OFFSET 0.000000 9.732643 -0.022378
       CHANNELS 3 Yrotation Xrotation Zrotation
       End Site
       {
        OFFSET 0.000000 18.603619 -0.011814
       }
      }
     }
     JOINT RightCollar
     {
      OFFSET -3.167735 10.388953 0.000000
      CHANNELS 3 Yrotation Xrotation Zrotation
      JOINT RightShoulder
      {
       OFFSET -14.584825 0.000000 0.000000
       CHANNELS 3 Yrotation Xrotation Zrotation
       JOINT RightElbow
       {
        OFFSET 0.000000 -31.921689 0.000000
        CHANNELS 3 Yrotation Xrotation Zrotation
        JOINT RightWrist
        {
         OFFSET 0.000000 -25.835217 0.000000
         CHANNELS 3 Yrotation Xrotation Zrotation
         End Site
         {
          OFFSET 0.000000 -19.128920 0.000000
         }
        }
       }
      }
     }
     JOINT LeftCollar
     {
      OFFSET 3.167735 10.388953 0.000000
      CHANNELS 3 Yrotation Xrotation Zrotation
      JOINT LeftShoulder
      {
       OFFSET 14.584825 0.000000 0.000000
       CHANNELS 3 Yrotation Xrotation Zrotation
       JOINT LeftElbow
       {
        OFFSET 0.000000 -31.921689 0.000000
        CHANNELS 3 Yrotation Xrotation Zrotation
        JOINT LeftWrist
        {
         OFFSET 0.000000 -25.835217 0.000000
         CHANNELS 3 Yrotation Xrotation Zrotation
         End Site
         {
          OFFSET 0.000000 -19.128920 0.000000
         }
        }
       }
      }
     }
    }
   }
  }
 }
 JOINT RightHip
 {
  OFFSET -8.403278 -0.025659 -0.002592
  CHANNELS 3 Yrotation Xrotation Zrotation
  JOINT RightKnee
  {
   OFFSET 0.000000 -44.040977 0.002477
   CHANNELS 3 Yrotation Xrotation Zrotation
   JOINT RightAnkle
   {
    OFFSET 0.000000 -42.951162 0.004189
    CHANNELS 3 Yrotation Xrotation Zrotation
    JOINT RightToe
    {
     OFFSET 0.000000 -5.494238 12.197485
     CHANNELS 3 Yrotation Xrotation Zrotation
     End Site
     {
      OFFSET 0.000000 -1.538716 6.371628
     }
    }
   }
  }
 }
 JOINT LeftHip
 {
  OFFSET 8.403278 -0.025659 -0.002592
  CHANNELS 3 Yrotation Xrotation Zrotation
  JOINT LeftKnee
  {
   OFFSET 0.000000 -44.040977 0.002477
   CHANNELS 3 Yrotation Xrotation Zrotation
   JOINT LeftAnkle
   {
    OFFSET 0.000000 -42.951162 0.004189
    CHANNELS 3 Yrotation Xrotation Zrotation
    JOINT LeftToe
    {
     OFFSET 0.000000 -5.494238 12.197485
     CHANNELS 3 Yrotation Xrotation Zrotation
     End Site
     {
      OFFSET 0.000000 -1.538716 6.371628
     }
    }
   }
  }
 }
}
MOTION
Frames: 15
Frame Time: 0.008333
0.000000 92.319940 0.000000 0.000000 -5.767889 0.000000 0.000000 11.653876 0.000000 0.000000 -5.885988 0.000000 0.000000 -0.000000 0.000000 0.000000 -0.000000 0.000000 0.000000 12.528808 0.000000 0.000000 0.711711 0.000000 0.000000 -0.000000 0.000000 0.000000 0.000000 -90.000000 0.000000 -2.309063 0.000000 0.000000 2.309063 0.000000 0.000000 -0.000000 0.000000 0.000000 -0.000000 90.000000 0.000000 -2.309063 0.000000 0.000000 2.309063 0.000000 0.000000 8.520374 0.000000 0.000000 1.905768 0.000000 -0.000000 -4.658254 0.000000 0.000000 -0.000000 0.000000 0.000000 8.520374 0.000000 0.000000 1.905768 0.000000 -0.000000 -4.658254 0.000000 0.000000 -0.000000 0.000000
-49.803381 93.041330 34.299089 129.050849 -5.481592 3.012056 -3.970467 3.760027 -2.966684 -0.138171 0.143320 -0.101925 -0.243965 0.252711 -0.180073 -3.712683 3.674519 -2.790188 1.778270 20.891166 1.774327 2.716337 2.988859 2.708037 12.010216 2.904144 0.654308 -1.417730 3.660204 -2.956524 -9.716452 -1.918736 -0.244882 9.413823 -5.866235 -21.165250 9.567883 5.991333 2.356899 9.406392 2.441389 13.397388 19.292220 -46.718884 -54.394115 4.831938 -30.539744 2.252346 -27.718163 -1.290753 -7.426571 17.851796 15.661949 -0.355649 -0.601711 -11.830431 2.575792 0.025140 0.057181 0.021380 -4.623646 11.120123 -6.321633 19.781088 -4.150580 -3.087505 7.488929 -4.007158 3.235814 -0.152090 -0.026898 -0.056496
-49.794579 93.040954 34.273520 129.027643 -5.464681 3.016837 -3.983407 3.749089 -2.958891 -0.138254 0.143004 -0.101465 -0.244116 0.252161 -0.179265 -3.717523 3.669613 -2.780367 1.767588 20.923312 1.778152 2.696183 3.048597 2.718397 12.011615 2.919305 0.648931 -1.398791 3.663199 -2.946851 -9.727574 -1.910246 -0.235256 9.410577 -5.870269 -21.172293 9.584318 6.016695 2.349756 9.475084 2.464412 13.309512 19.348925 -46.770661 -54.414603 4.844460 -30.557125 2.271331 -27.706837 -1.296219 -7.435925 17.857303 15.655238 -0.358455 -0.596847 -11.830793 2.595895 0.023237 0.050115 0.012680 -4.704327 11.131015 -6.361503 19.755052 -4.207841 -3.083970 7.573342 -3.978591 3.263836 -0.165245 -0.045203 -0.071736
-49.783042 93.040319 34.244879 129.000199 -5.443507 3.019165 -3.992590 3.735983 -2.949468 -0.138179 0.142504 -0.101037 -0.243993 0.251290 -0.178517 -3.719934 3.661621 -2.772481 1.755792 20.956308 1.783861 2.673485 3.109910 2.732496 12.004634 2.932379 0.646761 -1.371711 3.666151 -2.936491 -9.742718 -1.894685 -0.229585 9.405223 -5.877679 -21.175538 9.599081 6.045139 2.347818 9.557728 2.486260 13.222244 19.404007 -46.824085 -54.446822 4.859776 -30.577525 2.286415 -27.692946 -1.303241 -7.440140 17.856947 15.651778 -0.365337 -0.588598 -11.834001 2.616037 0.022477 0.043685 0.007129 -4.758132 11.153820 -6.397456 19.730804 -4.286305 -3.082958 7.632744 -3.936870 3.293772 -0.173079 -0.065567 -0.085402
-49.771185 93.039284 34.214065 128.985649 -5.410714 3.027218 -4.011304 3.711550 -2.946640 -0.138095 0.141899 -0.100678 -0.243855 0.250233 -0.177889 -3.722486 3.651138 -2.766547 1.743864 20.988276 1.791790 2.649909 3.169307 2.750639 11.994120 2.944812 0.648824 -1.340343 3.667216 -2.924801 -9.769221 -1.871916 -0.229571 9.402217 -5.888908 -21.173734 9.613458 6.075770 2.349643 9.647303 2.507780 13.134850 19.454187 -46.880480 -54.482235 4.878617 -30.592617 2.292352 -27.694049 -1.327699 -7.442839 17.854834 15.660476 -0.377194 -0.581033 -11.854099 2.639275 0.022377 0.047252 0.003289 -4.796748 11.179305 -6.436419 19.708216 -4.383139 -3.088761 7.698887 -3.875419 3.340172 -0.207166 -0.098259 -0.111445
-49.754129 93.037999 34.182128 128.961413 -5.388286 3.025933 -4.017814 3.699816 -2.934165 -0.138140 0.141165 -0.100316 -0.243942 0.248950 -0.177258 -3.728363 3.637196 -2.760560 1.733538 21.017797 1.801050 2.628843 3.224143 2.770701 11.985934 2.960045 0.652270 -1.310495 3.665899 -2.910254 -9.802941 -1.847780 -0.235415 9.403673 -5.899327 -21.166424 9.629841 6.109540 2.352544 9.737927 2.531544 13.045877 19.498390 -46.943456 -54.512767 4.898381 -30.599640 2.291413 -27.690403 -1.330481 -7.440498 17.857730 15.658578 -0.391329 -0.577062 -11.858000 2.662932 0.022342 0.040266 -0.000275 -4.800498 11.229342 -6.462408 19.693375 -4.495722 -3.102427 7.716626 -3.814408 3.380972 -0.211724 -0.120204 -0.123945
-49.735272 93.036213 34.150920 128.934890 -5.361160 3.020968 -4.023808 3.686147 -2.917107 -0.138236 0.140229 -0.099919 -0.244123 0.247312 -0.176565 -3.736492 3.618806 -2.754248 1.724563 21.043595 1.811093 2.609974 3.272056 2.791749 11.983970 2.975855 0.657435 -1.284949 3.667725 -2.896178 -9.841225 -1.829868 -0.243124 9.410678 -5.903997 -21.157615 9.651018 6.144712 2.354641 9.822883 2.559737 12.956357 19.535560 -47.014500 -54.533317 4.915182 -30.602520 2.294718 -27.685083 -1.335625 -7.431180 17.871893 15.658707 -0.403384 -0.580949 -11.861813 2.685805 0.021701 0.033726 -0.003369 -4.783733 11.285079 -6.480853 19.684480 -4.621125 -3.119508 7.716321 -3.747288 3.419554 -0.209767 -0.139890 -0.132263
-49.716344 93.033847 34.121577 128.911502 -5.323107 3.013681 -4.033322 3.666200 -2.896854 -0.138381 0.139158 -0.099516 -0.244391 0.245436 -0.175862 -3.746360 3.597244 -2.748060 1.715503 21.063979 1.822267 2.590575 3.309917 2.814812 11.989238 2.986668 0.667752 -1.266423 3.677791 -2.887526 -9.881776 -1.822732 -0.250412 9.420554 -5.900319 -21.154237 9.674633 6.176786 2.356792 9.899571 2.593276 12.867208 19.568180 -47.091311 -54.547261 4.924585 -30.603751 2.307732 -27.677136 -1.351755 -7.412635 17.894220 15.665075 -0.413444 -0.593316 -11.866898 2.708656 0.019820 0.027537 -0.006592 -4.756811 11.335567 -6.493017 19.669150 -4.757239 -3.137845 7.711815 -3.672790 3.454444 -0.202652 -0.157996 -0.135763
-49.698159 93.031066 34.093516 128.896557 -5.277146 3.008384 -4.045973 3.643399 -2.878113 -0.138610 0.138081 -0.099138 -0.244806 0.243548 -0.175203 -3.757934 3.574835 -2.742147 1.705134 21.078132 1.834834 2.568337 3.336217 2.840710 11.996134 2.990343 0.684711 -1.257069 3.695737 -2.888216 -9.916358 -1.825012 -0.256420 9.430681 -5.892980 -21.155191 9.692594 6.202890 2.361394 9.967417 2.632476 12.778823 19.610593 -47.166298 -54.563050 4.925007 -30.598373 2.319179 -27.665915 -1.377747 -7.392194 17.914668 15.677000 -0.421033 -0.609057 -11.874352 2.730080 0.017153 0.022650 -0.009064 -4.734963 11.378748 -6.504469 19.639432 -4.897897 -3.160185 7.721442 -3.594707 3.491311 -0.198033 -0.175276 -0.137389
-49.680625 93.028131 34.065809 128.883687 -5.230161 3.008181 -4.055072 3.624457 -2.863517 -0.138818 0.137010 -0.098767 -0.245183 0.241671 -0.174555 -3.769012 3.552571 -2.736399 1.692954 21.086653 1.847733 2.542657 3.352080 2.867671 11.998625 2.990121 0.705161 -1.257591 3.716966 -2.896749 -9.939294 -1.832914 -0.260073 9.440561 -5.889344 -21.159571 9.700986 6.222656 2.366716 10.027768 2.675945 12.695131 19.661899 -47.232724 -54.581389 4.920910 -30.586128 2.322775 -27.644124 -1.408260 -7.377911 17.930015 15.692740 -0.422665 -0.625390 -11.884586 2.746484 0.014726 0.020168 -0.009480 -4.720565 11.418351 -6.520577 19.598713 -5.035382 -3.184501 7.748358 -3.518630 3.530273 -0.199014 -0.191880 -0.138805
-49.664401 93.025175 34.038633 128.878580 -5.182088 3.012801 -4.063498 3.608300 -2.851949 -0.139115 0.135986 -0.098407 -0.245717 0.239873 -0.173926 -3.781683 3.530610 -2.730381 1.678860 21.090653 1.859285 2.513838 3.359580 2.892691 11.994531 2.990514 0.722363 -1.267284 3.736047 -2.907115 -9.946943 -1.845044 -0.263482 9.445093 -5.887719 -21.166952 9.701907 6.238032 2.368520 10.081743 2.720790 12.619866 19.705059 -47.292816 -54.596615 4.918467 -30.574909 2.329334 -27.622064 -1.443069 -7.369312 17.945089 15.710443 -0.420382 -0.642805 -11.897496 2.758772 0.012513 0.020198 -0.007895 -4.718162 11.449255 -6.542917 19.559919 -5.163154 -3.205636 7.777592 -3.445775 3.567123 -0.203041 -0.207588 -0.139591
-49.650073 93.022266 34.012654 128.889232 -5.131089 3.019521 -4.077506 3.592126 -2.841628 -0.139682 0.135110 -0.098067 -0.246723 0.238334 -0.173330 -3.799082 3.510072 -2.723316 1.664158 21.090600 1.869663 2.484205 3.359575 2.915720 11.986320 2.991702 0.733450 -1.284762 3.748763 -2.917497 -9.938764 -1.858442 -0.266606 9.444168 -5.883877 -21.176940 9.699828 6.250295 2.366646 10.128827 2.763230 12.552229 19.734917 -47.351162 -54.608058 4.915474 -30.562156 2.343148 -27.612469 -1.481371 -7.362019 17.959372 15.726592 -0.419501 -0.658957 -11.911634 2.770533 0.010414 0.022260 -0.005772 -4.731023 11.464960 -6.567454 19.530629 -5.274510 -3.223418 7.798918 -3.378519 3.600473 -0.208086 -0.221287 -0.139404
-49.637413 93.019501 33.988167 128.907477 -5.078748 3.025973 -4.095637 3.575957 -2.831893 -0.140388 0.134390 -0.097703 -0.247970 0.237064 -0.172690 -3.818595 3.492071 -2.714613 1.650087 21.087221 1.879975 2.455690 3.353395 2.938421 11.979018 2.993830 0.740516 -1.311975 3.754049 -2.927049 -9.916032 -1.868348 -0.269058 9.442343 -5.880717 -21.193043 9.697910 6.261895 2.362819 10.169771 2.799059 12.491488 19.751551 -47.405117 -54.614764 4.910925 -30.546221 2.356200 -27.610294 -1.519388 -7.352886 17.964917 15.738586 -0.423757 -0.669660 -11.925144 2.783942 0.008869 0.026088 -0.004430 -4.749919 11.466835 -6.589866 19.512327 -5.365690 -3.239442 7.812756 -3.320244 3.630010 -0.213986 -0.232364 -0.138190
-49.626112 93.016982 33.964840 128.927925 -5.028717 3.031966 -4.115254 3.560860 -2.822708 -0.141106 0.133825 -0.097295 -0.249238 0.236068 -0.171970 -3.837673 3.477508 -2.704244 1.635911 21.082439 1.890324 2.426956 3.344621 2.961209 11.974829 2.999387 0.743808 -1.344917 3.753965 -2.932689 -9.884976 -1.873694 -0.272113 9.438739 -5.881223 -21.215877 9.694693 6.274468 2.355846 10.204459 2.827356 12.439992 19.754796 -47.450731 -54.614646 4.909101 -30.538054 2.364822 -27.612168 -1.553368 -7.342143 17.960319 15.746132 -0.435082 -0.675125 -11.937304 2.798624 0.007955 0.030982 -0.002745 -4.769956 11.459456 -6.610514 19.503307 -5.436714 -3.252846 7.821852 -3.272138 3.655128 -0.221448 -0.240850 -0.136211
-49.615954 93.014766 33.942161 128.951284 -4.984551 3.037759 -4.136978 3.549359 -2.813977 -0.141962 0.133499 -0.096890 -0.250745 0.235491 -0.171254 -3.858268 3.467245 -2.692630 1.622325 21.077699 1.900226 2.399416 3.335926 2.983022 11.977093 3.009323 0.742479 -1.374726 3.748560 -2.933925 -9.856241 -1.875557 -0.275714 9.433214 -5.883417 -21.242225 9.691673 6.285961 2.344881 10.230788 2.849623 12.399573 19.754244 -47.487440 -54.613632 4.907283 -30.541789 2.368459 -27.619865 -1.580265 -7.332028 17.952742 15.749298 -0.452243 -0.679389 -11.947695 2.814013 0.007666 0.035994 -0.000019 -4.793521 11.447148 -6.631335 19.498003 -5.489324 -3.261500 7.830650 -3.234496 3.675804 -0.230414 -0.246491 -0.134322
